
<?xml version="1.0" encoding="UTF-8"?>
<!DOCTYPE svg PUBLIC "-//W3C//DTD SVG 1.1//EN" "http://www.w3.org/Graphics/SVG/1.1/DTD/svg11.dtd">
<!-- Creator: CorelDRAW -->
<svg xmlns="http://www.w3.org/2000/svg" xml:space="preserve" width="9.961mm" height="9.961mm" version="1.1" style="shape-rendering:geometricPrecision; text-rendering:geometricPrecision; image-rendering:optimizeQuality; fill-rule:evenodd; clip-rule:evenodd"
viewBox="0 0 97.42 97.42"
 xmlns:xlink="http://www.w3.org/1999/xlink"
 xmlns:xodm="http://www.corel.com/coreldraw/odm/2003">
 <defs>
  <style type="text/css">
   <![CDATA[
    .fil1 {fill:#FEFEFE}
    .fil0 {fill:#D2CDE7}
   ]]>
  </style>
     <clipPath id="id0">
      <path d="M-0 0l97.42 0 0 97.42 -97.42 0 0 -97.42z"/>
     </clipPath>
    <mask id="id1">
  <linearGradient id="id2" gradientUnits="userSpaceOnUse" x1="51.22" y1="48.76" x2="105.98" y2="92.06">
   <stop offset="0" style="stop-opacity:1; stop-color:white"/>
   <stop offset="1" style="stop-opacity:0; stop-color:white"/>
  </linearGradient>
     <rect style="fill:url(#id2)" x="11.24" y="11.24" width="74.94" height="74.94"/>
    </mask>
     <clipPath id="id3">
      <path d="M18.17 20.22l61.11 0.24 0 54.24 -61.11 -0.24 0 -54.24z"/>
     </clipPath>
 </defs>
 <g id="Layer_x0020_1">
  <metadata id="CorelCorpID_0Corel-Layer"/>
  <g id="_2022166606272">
   <g>
    <g style="clip-path:url(#id0)">
     <image x="-0" y="0" width="97.42" height="97.42" xlink:href="close icon_Images\close icon_ImgID1.png"/>
    </g>
   </g>
   <path class="fil0" style="mask:url(#id1)" d="M15.05 11.24l67.32 0c2.09,0 3.81,1.71 3.81,3.81l0 67.32c0,2.09 -1.71,3.81 -3.81,3.81l-67.32 0c-2.09,0 -3.81,-1.71 -3.81,-3.81l0 -67.32c0,-2.09 1.71,-3.81 3.81,-3.81z"/>
   <g>
    <g style="clip-path:url(#id3)">
     <image x="18.17" y="20.22" width="61.11" height="54.48" xlink:href="close icon_Images\close icon_ImgID2.png"/>
    </g>
   </g>
   <path class="fil1" d="M24.43 46.99c0,2.01 0.57,2.42 1.92,3.77 0.89,0.89 1.72,1.72 2.61,2.61 1.75,1.75 3.43,3.43 5.17,5.17 1.75,1.75 3.43,3.42 5.17,5.17 0.84,0.84 3.09,3.17 3.94,3.84 1.47,1.16 3.74,0.73 4.83,-0.71 0.62,-0.82 0.76,-2.21 0.35,-3.33 -0.32,-0.88 -1.26,-1.71 -1.91,-2.36 -1.53,-1.53 -8.57,-8.8 -9.76,-9.51l-1.25 -0.65c-0.12,-0.07 -0.09,-0.05 -0.17,-0.12l33.31 0c1.12,0 1.42,0.04 2.25,-0.31 1.31,-0.54 2.05,-1.76 2.11,-3.02l0 -0.37c-0.06,-1.18 -0.72,-2.35 -2.05,-2.98 -1.16,-0.55 -3.17,-0.34 -4.78,-0.34 -10.22,0 -20.44,0 -30.65,0 0.49,-0.43 0.99,-0.28 2.44,-1.73l8.49 -8.49c0.72,-0.72 1.53,-1.3 1.95,-2.32 1.18,-2.92 -1.87,-6.16 -5.07,-4.22 -0.72,0.44 -14.92,14.82 -16.85,16.75 -0.75,0.75 -2.06,1.81 -2.06,3.16z"/>
  </g>
 </g>
</svg>
