<?xml version="1.0" encoding="UTF-8"?>
<!DOCTYPE svg PUBLIC "-//W3C//DTD SVG 1.1//EN" "http://www.w3.org/Graphics/SVG/1.1/DTD/svg11.dtd">
<!-- Creator: CorelDRAW -->
<svg xmlns="http://www.w3.org/2000/svg" xml:space="preserve" width="128.197mm" height="92.3258mm" version="1.1" style="shape-rendering:geometricPrecision; text-rendering:geometricPrecision; image-rendering:optimizeQuality; fill-rule:evenodd; clip-rule:evenodd"
viewBox="0 0 1378.76 992.96"
 xmlns:xlink="http://www.w3.org/1999/xlink"
 xmlns:xodm="http://www.corel.com/coreldraw/odm/2003">
 <defs>
  <style type="text/css">
   <![CDATA[
    .fil0 {fill:#FEFEFE}
    .fil1 {fill:#006DE4}
   ]]>
  </style>
     <clipPath id="id0">
      <path d="M165.14 0l1019.27 15.65 0 968.11 -1019.27 -15.65 0 -968.11z"/>
     </clipPath>
 </defs>
 <g id="Layer_x0020_1">
  <metadata id="CorelCorpID_0Corel-Layer"/>
  <g id="_2021666075536">
   <rect class="fil0" x="-0.01" y="5.88" width="1378.76" height="987.08"/>
   <g>
    <g style="clip-path:url(#id0)">
     <image x="165.14" y="0" width="1019.27" height="983.75" xlink:href="icon_Images\icon_ImgID1.png"/>
    </g>
   </g>
   <g>
    <g>
     <path class="fil1" d="M222.17 901.53c105.52,2.24 174.31,-4.91 227.95,-67.3 26.03,-30.28 36.73,-55.65 57.76,-89.85 55.93,-91.05 92.77,-194.03 175.16,-267.28 47.87,-42.56 153.39,-101.99 200.8,-74.92l-41.26 13.6 84.86 34.1c-20.01,-47.07 -128,-236.09 -165.34,-301.85 -39.08,-68.83 -86.42,-73.6 -129.02,4.03 -24.11,43.97 -54.71,97.48 -82.4,148.74 -15.98,29.58 -326,584.77 -328.5,600.74z"/>
     <path class="fil1" d="M682.96 569.78c104.16,-20.99 147.16,44.41 184.69,106.33 25.47,42.02 83.28,140.82 120.26,175.34 -1.77,-21.81 -27.23,-52.49 -30.9,-84.22 24.88,30.28 72.05,98.45 97.58,109.39l-27.3 -95.26c25.5,13.8 57.52,57.1 78.42,74.26 -18.21,-85.1 -71.52,-238.75 -127.71,-299.56 -73.24,-79.3 -178.33,-84.6 -269.31,-14.15 -20.48,15.86 -18.5,12.14 -25.74,27.87z"/>
    </g>
   </g>
  </g>
 </g>
</svg>
