<?xml version="1.0" encoding="UTF-8"?>
<!DOCTYPE svg PUBLIC "-//W3C//DTD SVG 1.1//EN" "http://www.w3.org/Graphics/SVG/1.1/DTD/svg11.dtd">
<!-- Creator: CorelDRAW -->
<svg xmlns="http://www.w3.org/2000/svg" xml:space="preserve" width="42.3332mm" height="42.3332mm" version="1.1" style="shape-rendering:geometricPrecision; text-rendering:geometricPrecision; image-rendering:optimizeQuality; fill-rule:evenodd; clip-rule:evenodd"
viewBox="0 0 4233.32 4233.32"
 xmlns:xlink="http://www.w3.org/1999/xlink"
 xmlns:xodm="http://www.corel.com/coreldraw/odm/2003">
 <defs>
  <style type="text/css">
   <![CDATA[
    .fil0 {fill:#FEFEFE}
    .fil1 {fill:#0970DA}
   ]]>
  </style>
 </defs>
 <g id="Layer_x0020_1">
  <metadata id="CorelCorpID_0Corel-Layer"/>
  <rect class="fil0" x="-0.02" y="-8.47" width="4224.87" height="4216.4"/>
  <g id="_1423452381616">
   <path class="fil1" d="M322.52 3720.07l248.63 1.05c340.7,0.2 604.72,-152.16 743.23,-376.55 131.66,-213.29 278.49,-490.36 406.44,-713.28 147.59,-257.15 248.06,-450.14 470.37,-648.67 174.99,-156.27 487.44,-328.61 745.28,-295.6 36.73,4.7 44.82,0.47 57.51,17.77l-21.54 8.07c-6.72,1.38 -18.5,1.83 -27.69,2.87 -38.56,4.37 -105.28,23.41 -127.02,46.06 10.12,6.57 67.24,13.79 86.73,19.21 31.71,8.83 54.59,18.14 83.89,30 26.73,10.83 52.42,22.85 77.81,36.77 23.49,12.87 52.04,32.63 78.22,39.99l-660.61 -1204.32c-49.33,-87.75 -134.09,-206.92 -270.17,-198.03 -118.87,7.78 -186.37,135.45 -237.16,230.89 -53.4,100.33 -112.07,199.79 -166.07,300 -52.65,97.7 -114.09,208.95 -164.98,300.74 -226.91,409.28 -437.16,788.54 -659.67,1200.86 -107.19,198.65 -226.39,402.92 -331.81,601.14 -51.71,97.22 -109.61,201.82 -165.78,300.75 -24.34,42.88 -59.06,104.52 -83.85,149.8 -15.97,29.18 -78.21,131.25 -81.76,150.48z"/>
   <path class="fil1" d="M2175.94 2380.52c9.81,-1.3 31.14,-13.77 47.14,-18.91 135.62,-43.59 311.71,6.6 423.48,86.55 110.03,78.7 204.22,218.11 273.66,338.17 132.29,228.75 213.9,352.65 359.25,557.97 20.2,28.53 107.89,156.66 135.87,168.29 -6.92,-22.39 -136.9,-246 -134.95,-342.27 28.96,5.66 73.69,78.99 100.19,114.07 44.26,58.6 142.35,185.82 189.34,235.63 21.23,22.51 90.02,95.64 111.64,103.72 -4.87,-25.62 -21.86,-71.52 -30.25,-97.95 -17.02,-53.66 -81.99,-259.47 -81,-293.24 23.11,3.74 28.89,15.25 46.74,33.31l195.69 198.13c15.36,16.6 60.91,68.65 77.41,77.61 -1.68,-12.62 -24.44,-54.32 -31.22,-71.55 -25.09,-63.69 -53.41,-172.37 -79.84,-247.04 -38.14,-107.81 -67.57,-222.33 -107.88,-331.65 -82.12,-222.65 -163.15,-408.18 -312.21,-569.74 -134.44,-145.72 -337.16,-274.57 -621.93,-252.72 -117.08,8.98 -242.68,59.31 -327.77,110.8 -53.2,32.2 -218.55,162.43 -233.36,200.82z"/>
  </g>
 </g>
</svg>
