<?xml version="1.0" encoding="UTF-8"?>
<!DOCTYPE svg PUBLIC "-//W3C//DTD SVG 1.1//EN" "http://www.w3.org/Graphics/SVG/1.1/DTD/svg11.dtd">
<!-- Creator: CorelDRAW -->
<svg xmlns="http://www.w3.org/2000/svg" xml:space="preserve" width="162.56mm" height="148.432mm" version="1.1" style="shape-rendering:geometricPrecision; text-rendering:geometricPrecision; image-rendering:optimizeQuality; fill-rule:evenodd; clip-rule:evenodd"
viewBox="0 0 47455.44 43331.09"
 xmlns:xlink="http://www.w3.org/1999/xlink"
 xmlns:xodm="http://www.corel.com/coreldraw/odm/2003">
 <defs>
  <style type="text/css">
   <![CDATA[
    .fil0 {fill:#006DE4}
   ]]>
  </style>
 </defs>
 <g id="Layer_x0020_1">
  <metadata id="CorelCorpID_0Corel-Layer"/>
  <g id="_2020468524832">
   <g>
    <path class="fil0" d="M-0 43312.46c5667.45,120.71 9362.06,-263.61 12243.04,-3614.74 1397.62,-1625.97 1972.86,-2988.33 3101.89,-4825.47 3004.21,-4890.05 4982.68,-10420.87 9408.21,-14355.68 2571.22,-2286.07 8238.67,-5478.1 10785.25,-4024.02l-2216.21 730.31 4557.81 1831.22c-1074.7,-2528.46 -6875.05,-12680.11 -8880.7,-16212.47 -2099.21,-3696.8 -4642.03,-3952.91 -6929.35,216.49 -1295.27,2361.88 -2938.7,5236.01 -4425.83,7989.1 -858.23,1588.83 -17509.97,31408.29 -17644.11,32265.26z"/>
    <path class="fil0" d="M24748.79 25494.28c5594.76,-1127.13 7904.56,2385.59 9919.84,5711.15 1367.96,2257.05 4472.94,7564.2 6459.85,9417.58 -95.14,-1171.12 -1462.81,-2818.92 -1660.27,-4523.51 1336.76,1626.29 3870.23,5287.83 5241.32,5875.24l-1466.23 -5116.52c1369.19,741.23 3089.36,3066.62 4212.14,3988.46 -978.33,-4570.91 -3842.15,-12822.98 -6859.17,-16089.57 -3934.2,-4258.93 -9578.55,-4544.09 -14465.18,-759.62 -1099.98,851.96 -992.99,651.67 -1382.3,1496.79z"/>
   </g>
  </g>
 </g>
</svg>
